<mxfile host="app.diagrams.net" modified="2023-11-16T21:28:15.296Z" agent="Mozilla/5.0 (Windows NT 10.0; Win64; x64; rv:109.0) Gecko/20100101 Firefox/119.0" etag="7Orl058j60ZTR-0tPzSz" version="22.1.2" type="device">
  <diagram name="Page-1" id="T5EYXJv1ri5F9CuWuJAU">
    <mxGraphModel dx="1252" dy="713" grid="1" gridSize="10" guides="1" tooltips="1" connect="1" arrows="1" fold="1" page="0" pageScale="1" pageWidth="850" pageHeight="1100" math="0" shadow="0">
      <root>
        <mxCell id="0" />
        <mxCell id="1" parent="0" />
        <mxCell id="LV5YEyjAx938TFkUb-Wb-58" value="" style="rounded=0;whiteSpace=wrap;html=1;fillColor=#F2FFF7;strokeColor=#000000;fillStyle=auto;fontColor=#000000;gradientColor=none;" vertex="1" parent="1">
          <mxGeometry x="20" y="90" width="510" height="420" as="geometry" />
        </mxCell>
        <mxCell id="LV5YEyjAx938TFkUb-Wb-57" value="" style="rounded=0;whiteSpace=wrap;html=1;fillColor=#FFF7F7;" vertex="1" parent="1">
          <mxGeometry x="20" y="530" width="510" height="510" as="geometry" />
        </mxCell>
        <mxCell id="LV5YEyjAx938TFkUb-Wb-5" value="" style="edgeStyle=orthogonalEdgeStyle;orthogonalLoop=1;jettySize=auto;html=1;" edge="1" parent="1" source="LV5YEyjAx938TFkUb-Wb-2" target="LV5YEyjAx938TFkUb-Wb-4">
          <mxGeometry relative="1" as="geometry">
            <Array as="points">
              <mxPoint x="240" y="90" />
              <mxPoint x="240" y="90" />
            </Array>
          </mxGeometry>
        </mxCell>
        <mxCell id="LV5YEyjAx938TFkUb-Wb-2" value="&lt;div&gt;Recording&lt;/div&gt;&lt;div style=&quot;font-size: 9px;&quot; align=&quot;center&quot;&gt;64 channel eego&lt;sup&gt;TM&lt;/sup&gt; sports mobile eeg system&lt;br&gt;&lt;/div&gt;" style="rounded=0;whiteSpace=wrap;html=1;fillColor=#e51400;fontColor=#ffffff;strokeColor=#B20000;" vertex="1" parent="1">
          <mxGeometry x="20" width="510" height="80" as="geometry" />
        </mxCell>
        <mxCell id="LV5YEyjAx938TFkUb-Wb-17" value="" style="edgeStyle=orthogonalEdgeStyle;orthogonalLoop=1;jettySize=auto;html=1;" edge="1" parent="1" source="LV5YEyjAx938TFkUb-Wb-4" target="LV5YEyjAx938TFkUb-Wb-16">
          <mxGeometry relative="1" as="geometry" />
        </mxCell>
        <mxCell id="LV5YEyjAx938TFkUb-Wb-4" value="&lt;div&gt;Digitisation&lt;/div&gt;" style="rounded=0;whiteSpace=wrap;html=1;" vertex="1" parent="1">
          <mxGeometry x="180" y="120" width="120" height="60" as="geometry" />
        </mxCell>
        <mxCell id="LV5YEyjAx938TFkUb-Wb-9" style="edgeStyle=orthogonalEdgeStyle;orthogonalLoop=1;jettySize=auto;html=1;exitX=0;exitY=0.5;exitDx=0;exitDy=0;entryX=1;entryY=0.5;entryDx=0;entryDy=0;fillColor=#d5e8d4;strokeColor=#82b366;" edge="1" parent="1" source="LV5YEyjAx938TFkUb-Wb-8" target="LV5YEyjAx938TFkUb-Wb-4">
          <mxGeometry relative="1" as="geometry" />
        </mxCell>
        <mxCell id="LV5YEyjAx938TFkUb-Wb-8" value="" style="rounded=0;whiteSpace=wrap;html=1;fillColor=#d5e8d4;strokeColor=#82b366;" vertex="1" parent="1">
          <mxGeometry x="400" y="120" width="120" height="60" as="geometry" />
        </mxCell>
        <mxCell id="LV5YEyjAx938TFkUb-Wb-10" value="Frequency" style="text;html=1;strokeColor=#82b366;fillColor=none;align=center;verticalAlign=middle;whiteSpace=wrap;rounded=0;" vertex="1" parent="1">
          <mxGeometry x="400" y="120" width="60" height="20" as="geometry" />
        </mxCell>
        <mxCell id="LV5YEyjAx938TFkUb-Wb-11" value="Reference" style="rounded=0;whiteSpace=wrap;html=1;fillColor=#d5e8d4;strokeColor=#82b366;" vertex="1" parent="1">
          <mxGeometry x="400" y="140" width="60" height="20" as="geometry" />
        </mxCell>
        <mxCell id="LV5YEyjAx938TFkUb-Wb-12" value="Ground" style="rounded=0;whiteSpace=wrap;html=1;fillColor=#d5e8d4;strokeColor=#82b366;" vertex="1" parent="1">
          <mxGeometry x="400" y="160" width="60" height="20" as="geometry" />
        </mxCell>
        <mxCell id="LV5YEyjAx938TFkUb-Wb-13" value="500 Hz" style="rounded=0;whiteSpace=wrap;html=1;fillColor=#dae8fc;strokeColor=#6c8ebf;" vertex="1" parent="1">
          <mxGeometry x="460" y="120" width="60" height="20" as="geometry" />
        </mxCell>
        <mxCell id="LV5YEyjAx938TFkUb-Wb-14" value="CPz" style="rounded=0;whiteSpace=wrap;html=1;fillColor=#dae8fc;strokeColor=#6c8ebf;" vertex="1" parent="1">
          <mxGeometry x="460" y="140" width="60" height="20" as="geometry" />
        </mxCell>
        <mxCell id="LV5YEyjAx938TFkUb-Wb-15" value="AFz" style="rounded=0;whiteSpace=wrap;html=1;fillColor=#dae8fc;strokeColor=#6c8ebf;" vertex="1" parent="1">
          <mxGeometry x="460" y="160" width="60" height="20" as="geometry" />
        </mxCell>
        <mxCell id="LV5YEyjAx938TFkUb-Wb-21" value="" style="edgeStyle=orthogonalEdgeStyle;orthogonalLoop=1;jettySize=auto;html=1;" edge="1" parent="1" source="LV5YEyjAx938TFkUb-Wb-16" target="LV5YEyjAx938TFkUb-Wb-20">
          <mxGeometry relative="1" as="geometry" />
        </mxCell>
        <mxCell id="LV5YEyjAx938TFkUb-Wb-16" value="&lt;div&gt;Detrending&lt;/div&gt;" style="rounded=0;whiteSpace=wrap;html=1;" vertex="1" parent="1">
          <mxGeometry x="180" y="220" width="120" height="60" as="geometry" />
        </mxCell>
        <mxCell id="LV5YEyjAx938TFkUb-Wb-28" value="" style="edgeStyle=orthogonalEdgeStyle;orthogonalLoop=1;jettySize=auto;html=1;" edge="1" parent="1" source="LV5YEyjAx938TFkUb-Wb-20" target="LV5YEyjAx938TFkUb-Wb-27">
          <mxGeometry relative="1" as="geometry" />
        </mxCell>
        <mxCell id="LV5YEyjAx938TFkUb-Wb-20" value="&lt;div&gt;Bandpass Filter&lt;br&gt;&lt;/div&gt;" style="shape=hexagon;perimeter=hexagonPerimeter2;whiteSpace=wrap;html=1;fixedSize=1;rounded=0;" vertex="1" parent="1">
          <mxGeometry x="180" y="320" width="120" height="80" as="geometry" />
        </mxCell>
        <mxCell id="LV5YEyjAx938TFkUb-Wb-22" value="Min" style="rounded=0;whiteSpace=wrap;html=1;fillColor=#d5e8d4;strokeColor=#82b366;" vertex="1" parent="1">
          <mxGeometry x="400" y="340" width="60" height="20" as="geometry" />
        </mxCell>
        <mxCell id="LV5YEyjAx938TFkUb-Wb-26" style="edgeStyle=orthogonalEdgeStyle;orthogonalLoop=1;jettySize=auto;html=1;exitX=0;exitY=0;exitDx=0;exitDy=0;entryX=1;entryY=0.5;entryDx=0;entryDy=0;fillColor=#d5e8d4;strokeColor=#82b366;" edge="1" parent="1" source="LV5YEyjAx938TFkUb-Wb-23" target="LV5YEyjAx938TFkUb-Wb-20">
          <mxGeometry relative="1" as="geometry">
            <Array as="points">
              <mxPoint x="380" y="360" />
              <mxPoint x="380" y="360" />
            </Array>
          </mxGeometry>
        </mxCell>
        <mxCell id="LV5YEyjAx938TFkUb-Wb-23" value="Max" style="rounded=0;whiteSpace=wrap;html=1;fillColor=#d5e8d4;strokeColor=#82b366;" vertex="1" parent="1">
          <mxGeometry x="400" y="360" width="60" height="20" as="geometry" />
        </mxCell>
        <mxCell id="LV5YEyjAx938TFkUb-Wb-24" value="0.5 Hz" style="rounded=0;whiteSpace=wrap;html=1;fillColor=#dae8fc;strokeColor=#6c8ebf;" vertex="1" parent="1">
          <mxGeometry x="460" y="340" width="60" height="20" as="geometry" />
        </mxCell>
        <mxCell id="LV5YEyjAx938TFkUb-Wb-25" value="36.0 Hz" style="rounded=0;whiteSpace=wrap;html=1;fillColor=#dae8fc;strokeColor=#6c8ebf;" vertex="1" parent="1">
          <mxGeometry x="460" y="360" width="60" height="20" as="geometry" />
        </mxCell>
        <mxCell id="LV5YEyjAx938TFkUb-Wb-39" value="" style="edgeStyle=orthogonalEdgeStyle;orthogonalLoop=1;jettySize=auto;html=1;" edge="1" parent="1" source="LV5YEyjAx938TFkUb-Wb-27" target="LV5YEyjAx938TFkUb-Wb-38">
          <mxGeometry relative="1" as="geometry" />
        </mxCell>
        <mxCell id="LV5YEyjAx938TFkUb-Wb-27" value="Epoched" style="whiteSpace=wrap;html=1;rounded=0;" vertex="1" parent="1">
          <mxGeometry x="180" y="440" width="120" height="60" as="geometry" />
        </mxCell>
        <mxCell id="LV5YEyjAx938TFkUb-Wb-30" value="Start" style="rounded=0;whiteSpace=wrap;html=1;fillColor=#d5e8d4;strokeColor=#82b366;" vertex="1" parent="1">
          <mxGeometry x="400" y="430" width="60" height="20" as="geometry" />
        </mxCell>
        <mxCell id="LV5YEyjAx938TFkUb-Wb-31" value="End" style="rounded=0;whiteSpace=wrap;html=1;fillColor=#d5e8d4;strokeColor=#82b366;" vertex="1" parent="1">
          <mxGeometry x="400" y="470" width="60" height="30" as="geometry" />
        </mxCell>
        <mxCell id="LV5YEyjAx938TFkUb-Wb-59" style="edgeStyle=orthogonalEdgeStyle;orthogonalLoop=1;jettySize=auto;html=1;exitX=0;exitY=1;exitDx=0;exitDy=0;entryX=1;entryY=0.5;entryDx=0;entryDy=0;fillColor=#d5e8d4;strokeColor=#82b366;" edge="1" parent="1" source="LV5YEyjAx938TFkUb-Wb-33" target="LV5YEyjAx938TFkUb-Wb-27">
          <mxGeometry relative="1" as="geometry">
            <Array as="points">
              <mxPoint x="380" y="470" />
              <mxPoint x="380" y="470" />
            </Array>
          </mxGeometry>
        </mxCell>
        <mxCell id="LV5YEyjAx938TFkUb-Wb-33" value="Nullpunkt" style="rounded=0;whiteSpace=wrap;html=1;fillColor=#d5e8d4;strokeColor=#82b366;" vertex="1" parent="1">
          <mxGeometry x="400" y="450" width="60" height="20" as="geometry" />
        </mxCell>
        <mxCell id="LV5YEyjAx938TFkUb-Wb-34" value="1s pre cue" style="rounded=0;whiteSpace=wrap;html=1;fillColor=#dae8fc;strokeColor=#6c8ebf;" vertex="1" parent="1">
          <mxGeometry x="460" y="430" width="60" height="20" as="geometry" />
        </mxCell>
        <mxCell id="LV5YEyjAx938TFkUb-Wb-35" value="cue onset" style="rounded=0;whiteSpace=wrap;html=1;fillColor=#dae8fc;strokeColor=#6c8ebf;" vertex="1" parent="1">
          <mxGeometry x="460" y="450" width="60" height="20" as="geometry" />
        </mxCell>
        <mxCell id="LV5YEyjAx938TFkUb-Wb-36" value="1s post response" style="rounded=0;whiteSpace=wrap;html=1;fillColor=#dae8fc;strokeColor=#6c8ebf;" vertex="1" parent="1">
          <mxGeometry x="460" y="470" width="60" height="30" as="geometry" />
        </mxCell>
        <mxCell id="LV5YEyjAx938TFkUb-Wb-41" value="" style="edgeStyle=orthogonalEdgeStyle;orthogonalLoop=1;jettySize=auto;html=1;fillColor=#f8cecc;strokeColor=#b85450;" edge="1" parent="1" source="LV5YEyjAx938TFkUb-Wb-38" target="LV5YEyjAx938TFkUb-Wb-40">
          <mxGeometry relative="1" as="geometry" />
        </mxCell>
        <mxCell id="LV5YEyjAx938TFkUb-Wb-38" value="Artifact Inspection" style="whiteSpace=wrap;html=1;rounded=0;fillColor=#f8cecc;strokeColor=#b85450;" vertex="1" parent="1">
          <mxGeometry x="180" y="540" width="120" height="60" as="geometry" />
        </mxCell>
        <mxCell id="LV5YEyjAx938TFkUb-Wb-43" value="" style="edgeStyle=orthogonalEdgeStyle;orthogonalLoop=1;jettySize=auto;html=1;fillColor=#f8cecc;strokeColor=#b85450;" edge="1" parent="1" source="LV5YEyjAx938TFkUb-Wb-40" target="LV5YEyjAx938TFkUb-Wb-42">
          <mxGeometry relative="1" as="geometry" />
        </mxCell>
        <mxCell id="LV5YEyjAx938TFkUb-Wb-44" value="Yes" style="edgeLabel;html=1;align=center;verticalAlign=middle;resizable=0;points=[];" vertex="1" connectable="0" parent="LV5YEyjAx938TFkUb-Wb-43">
          <mxGeometry x="0.1075" y="-1" relative="1" as="geometry">
            <mxPoint as="offset" />
          </mxGeometry>
        </mxCell>
        <mxCell id="LV5YEyjAx938TFkUb-Wb-46" value="" style="edgeStyle=orthogonalEdgeStyle;orthogonalLoop=1;jettySize=auto;html=1;fillColor=#f8cecc;strokeColor=#b85450;" edge="1" parent="1" source="LV5YEyjAx938TFkUb-Wb-40" target="LV5YEyjAx938TFkUb-Wb-45">
          <mxGeometry relative="1" as="geometry" />
        </mxCell>
        <mxCell id="LV5YEyjAx938TFkUb-Wb-47" value="No" style="edgeLabel;html=1;align=center;verticalAlign=middle;resizable=0;points=[];" vertex="1" connectable="0" parent="LV5YEyjAx938TFkUb-Wb-46">
          <mxGeometry x="-0.2767" relative="1" as="geometry">
            <mxPoint as="offset" />
          </mxGeometry>
        </mxCell>
        <mxCell id="LV5YEyjAx938TFkUb-Wb-40" value="&lt;div style=&quot;font-size: 9px;&quot;&gt;&lt;font style=&quot;font-size: 9px;&quot;&gt;Large&lt;/font&gt;&lt;/div&gt;&lt;div style=&quot;font-size: 9px;&quot;&gt;&lt;font style=&quot;font-size: 9px;&quot;&gt;Artifacts&lt;/font&gt;&lt;/div&gt;&lt;div style=&quot;font-size: 9px;&quot;&gt;&lt;font style=&quot;font-size: 9px;&quot;&gt;Present ?&lt;/font&gt;&lt;br style=&quot;font-size: 9px;&quot;&gt;&lt;/div&gt;" style="rhombus;whiteSpace=wrap;html=1;fillColor=#f8cecc;strokeColor=#b85450;rounded=0;fontSize=9;" vertex="1" parent="1">
          <mxGeometry x="200" y="640" width="80" height="80" as="geometry" />
        </mxCell>
        <mxCell id="LV5YEyjAx938TFkUb-Wb-42" value="Discard" style="ellipse;shape=cloud;whiteSpace=wrap;html=1;fontSize=12;fillColor=#f8cecc;strokeColor=#b85450;rounded=0;" vertex="1" parent="1">
          <mxGeometry x="20" y="640" width="120" height="80" as="geometry" />
        </mxCell>
        <mxCell id="LV5YEyjAx938TFkUb-Wb-49" value="" style="edgeStyle=orthogonalEdgeStyle;orthogonalLoop=1;jettySize=auto;html=1;" edge="1" parent="1" source="LV5YEyjAx938TFkUb-Wb-45" target="LV5YEyjAx938TFkUb-Wb-48">
          <mxGeometry relative="1" as="geometry" />
        </mxCell>
        <mxCell id="LV5YEyjAx938TFkUb-Wb-45" value="Identify Corrupted Electrodes" style="whiteSpace=wrap;html=1;fontSize=12;fillColor=#f8cecc;strokeColor=#b85450;rounded=0;" vertex="1" parent="1">
          <mxGeometry x="180" y="760" width="120" height="60" as="geometry" />
        </mxCell>
        <mxCell id="LV5YEyjAx938TFkUb-Wb-56" value="" style="edgeStyle=orthogonalEdgeStyle;orthogonalLoop=1;jettySize=auto;html=1;" edge="1" parent="1" source="LV5YEyjAx938TFkUb-Wb-48" target="LV5YEyjAx938TFkUb-Wb-55">
          <mxGeometry relative="1" as="geometry" />
        </mxCell>
        <mxCell id="LV5YEyjAx938TFkUb-Wb-48" value="Interpolate Corrupted Electrodes" style="whiteSpace=wrap;html=1;fontSize=12;rounded=0;" vertex="1" parent="1">
          <mxGeometry x="180" y="860" width="120" height="60" as="geometry" />
        </mxCell>
        <mxCell id="LV5YEyjAx938TFkUb-Wb-53" style="edgeStyle=orthogonalEdgeStyle;orthogonalLoop=1;jettySize=auto;html=1;exitX=0;exitY=0.5;exitDx=0;exitDy=0;entryX=1;entryY=0.5;entryDx=0;entryDy=0;" edge="1" parent="1" source="LV5YEyjAx938TFkUb-Wb-50" target="LV5YEyjAx938TFkUb-Wb-48">
          <mxGeometry relative="1" as="geometry" />
        </mxCell>
        <mxCell id="LV5YEyjAx938TFkUb-Wb-50" value="&lt;div&gt;Max. Interpolated&lt;/div&gt;&lt;div&gt;Electrodes&lt;br&gt;&lt;/div&gt;" style="rounded=0;whiteSpace=wrap;html=1;fillColor=#d5e8d4;strokeColor=#82b366;" vertex="1" parent="1">
          <mxGeometry x="400" y="860" width="80" height="60" as="geometry" />
        </mxCell>
        <mxCell id="LV5YEyjAx938TFkUb-Wb-54" value="2" style="rounded=0;whiteSpace=wrap;html=1;fillColor=#dae8fc;strokeColor=#6c8ebf;" vertex="1" parent="1">
          <mxGeometry x="480" y="860" width="40" height="60" as="geometry" />
        </mxCell>
        <mxCell id="LV5YEyjAx938TFkUb-Wb-55" value="FastICA" style="whiteSpace=wrap;html=1;fontSize=12;rounded=0;" vertex="1" parent="1">
          <mxGeometry x="180" y="960" width="120" height="60" as="geometry" />
        </mxCell>
        <mxCell id="LV5YEyjAx938TFkUb-Wb-60" value="Preparation" style="text;html=1;strokeColor=none;fillColor=none;align=center;verticalAlign=middle;whiteSpace=wrap;rounded=0;" vertex="1" parent="1">
          <mxGeometry x="20" y="90" width="70" height="30" as="geometry" />
        </mxCell>
        <mxCell id="LV5YEyjAx938TFkUb-Wb-61" value="Preprocessing Done" style="rounded=0;whiteSpace=wrap;html=1;fillColor=#e51400;fontColor=#ffffff;strokeColor=#B20000;" vertex="1" parent="1">
          <mxGeometry x="20" y="1060" width="510" height="60" as="geometry" />
        </mxCell>
        <mxCell id="LV5YEyjAx938TFkUb-Wb-62" style="edgeStyle=orthogonalEdgeStyle;orthogonalLoop=1;jettySize=auto;html=1;exitX=0.5;exitY=1;exitDx=0;exitDy=0;entryX=0.431;entryY=-0.006;entryDx=0;entryDy=0;entryPerimeter=0;" edge="1" parent="1" source="LV5YEyjAx938TFkUb-Wb-55" target="LV5YEyjAx938TFkUb-Wb-61">
          <mxGeometry relative="1" as="geometry" />
        </mxCell>
        <mxCell id="LV5YEyjAx938TFkUb-Wb-63" value="Cleanup" style="text;html=1;strokeColor=none;fillColor=none;align=center;verticalAlign=middle;whiteSpace=wrap;rounded=0;" vertex="1" parent="1">
          <mxGeometry x="20" y="530" width="60" height="30" as="geometry" />
        </mxCell>
        <mxCell id="LV5YEyjAx938TFkUb-Wb-64" value="Muscle &amp;amp; Eye signal cleanup" style="text;html=1;strokeColor=none;fillColor=none;align=center;verticalAlign=middle;whiteSpace=wrap;rounded=0;" vertex="1" parent="1">
          <mxGeometry x="50" y="975" width="60" height="30" as="geometry" />
        </mxCell>
      </root>
    </mxGraphModel>
  </diagram>
</mxfile>
